<svg width="20" height="16" viewBox="0 0 20 16" fill="none" xmlns="http://www.w3.org/2000/svg">
<path fill-rule="evenodd" clip-rule="evenodd" d="M10.577 3.76422C10.2545 4.07365 9.74542 4.07365 9.42298 3.76422L8.84598 3.2105C8.17062 2.56239 7.25826 2.16667 6.24998 2.16667C4.17891 2.16667 2.49998 3.8456 2.49998 5.91667C2.49998 7.90219 3.5748 9.54171 5.12644 10.8888C6.67941 12.237 8.53615 13.1312 9.64552 13.5876C9.87748 13.683 10.1225 13.683 10.3544 13.5876C11.4638 13.1312 13.3205 12.237 14.8735 10.8888C16.4252 9.54171 17.5 7.90218 17.5 5.91667C17.5 3.8456 15.821 2.16667 13.75 2.16667C12.7417 2.16667 11.8293 2.56239 11.154 3.2105L10.577 3.76422ZM9.99998 2.00798C9.02673 1.074 7.70539 0.5 6.24998 0.5C3.25844 0.5 0.833313 2.92512 0.833313 5.91667C0.833313 11.2235 6.64193 14.1542 9.01147 15.1289C9.64962 15.3914 10.3503 15.3914 10.9885 15.1289C13.358 14.1542 19.1666 11.2235 19.1666 5.91667C19.1666 2.92512 16.7415 0.5 13.75 0.5C12.2946 0.5 10.9732 1.074 9.99998 2.00798Z" fill="#6C7275"/>
</svg>
