<svg width="23" height="18" viewBox="0 0 23 18" fill="none" xmlns="http://www.w3.org/2000/svg">
<path fill-rule="evenodd" clip-rule="evenodd" d="M12.1924 3.91706C11.8055 4.28838 11.1945 4.28838 10.8076 3.91706L10.1152 3.2526C9.30477 2.47487 8.20994 2 7 2C4.51472 2 2.5 4.01472 2.5 6.5C2.5 8.88263 3.78979 10.8501 5.65176 12.4666C7.51532 14.0844 9.7434 15.1574 11.0746 15.7051C11.353 15.8196 11.647 15.8196 11.9254 15.7051C13.2566 15.1574 15.4847 14.0844 17.3482 12.4666C19.2102 10.85 20.5 8.88262 20.5 6.5C20.5 4.01472 18.4853 2 16 2C14.7901 2 13.6952 2.47487 12.8848 3.2526L12.1924 3.91706ZM11.5 1.80957C10.3321 0.688804 8.74649 0 7 0C3.41015 0 0.5 2.91015 0.5 6.5C0.5 12.8683 7.47034 16.385 10.3138 17.5547C11.0796 17.8697 11.9204 17.8697 12.6862 17.5547C15.5297 16.385 22.5 12.8682 22.5 6.5C22.5 2.91015 19.5899 0 16 0C14.2535 0 12.6679 0.688804 11.5 1.80957Z" fill="#141718"/>
</svg>
