<svg width="96" height="16" viewBox="0 0 96 16" fill="none" xmlns="http://www.w3.org/2000/svg">
<path d="M7.53834 1.10997C7.70914 0.699319 8.29086 0.699318 8.46166 1.10996L9.99874 4.80556C10.0707 4.97868 10.2336 5.09696 10.4204 5.11194L14.4102 5.4318C14.8535 5.46734 15.0332 6.02059 14.6955 6.30993L11.6557 8.91378C11.5133 9.03576 11.4512 9.22715 11.4947 9.40952L12.4234 13.3028C12.5265 13.7354 12.0559 14.0773 11.6764 13.8455L8.26063 11.7592C8.10062 11.6615 7.89938 11.6615 7.73937 11.7592L4.32363 13.8455C3.94408 14.0773 3.47345 13.7354 3.57665 13.3028L4.50534 9.40952C4.54884 9.22715 4.48665 9.03576 4.34426 8.91378L1.30453 6.30993C0.966758 6.02059 1.14652 5.46734 1.58985 5.4318L5.57955 5.11194C5.76645 5.09696 5.92925 4.97868 6.00126 4.80556L7.53834 1.10997Z" fill="#141718"/>
<path d="M27.5383 1.10997C27.7091 0.699319 28.2909 0.699318 28.4617 1.10996L29.9987 4.80556C30.0707 4.97868 30.2336 5.09696 30.4204 5.11194L34.4102 5.4318C34.8535 5.46734 35.0332 6.02059 34.6955 6.30993L31.6557 8.91378C31.5133 9.03576 31.4512 9.22715 31.4947 9.40952L32.4234 13.3028C32.5265 13.7354 32.0559 14.0773 31.6764 13.8455L28.2606 11.7592C28.1006 11.6615 27.8994 11.6615 27.7394 11.7592L24.3236 13.8455C23.9441 14.0773 23.4735 13.7354 23.5766 13.3028L24.5053 9.40952C24.5488 9.22715 24.4867 9.03576 24.3443 8.91378L21.3045 6.30993C20.9668 6.02059 21.1465 5.46734 21.5898 5.4318L25.5796 5.11194C25.7664 5.09696 25.9293 4.97868 26.0013 4.80556L27.5383 1.10997Z" fill="#141718"/>
<path d="M47.5383 1.10997C47.7091 0.699319 48.2909 0.699318 48.4617 1.10996L49.9987 4.80556C50.0707 4.97868 50.2336 5.09696 50.4204 5.11194L54.4102 5.4318C54.8535 5.46734 55.0332 6.02059 54.6955 6.30993L51.6557 8.91378C51.5133 9.03576 51.4512 9.22715 51.4947 9.40952L52.4234 13.3028C52.5265 13.7354 52.0559 14.0773 51.6764 13.8455L48.2606 11.7592C48.1006 11.6615 47.8994 11.6615 47.7394 11.7592L44.3236 13.8455C43.9441 14.0773 43.4735 13.7354 43.5766 13.3028L44.5053 9.40952C44.5488 9.22715 44.4867 9.03576 44.3443 8.91378L41.3045 6.30993C40.9668 6.02059 41.1465 5.46734 41.5898 5.4318L45.5796 5.11194C45.7664 5.09696 45.9293 4.97868 46.0013 4.80556L47.5383 1.10997Z" fill="#141718"/>
<path d="M67.5383 1.10997C67.7091 0.699319 68.2909 0.699318 68.4617 1.10996L69.9987 4.80556C70.0707 4.97868 70.2336 5.09696 70.4204 5.11194L74.4102 5.4318C74.8535 5.46734 75.0332 6.02059 74.6955 6.30993L71.6557 8.91378C71.5133 9.03576 71.4512 9.22715 71.4947 9.40952L72.4234 13.3028C72.5265 13.7354 72.0559 14.0773 71.6764 13.8455L68.2606 11.7592C68.1006 11.6615 67.8994 11.6615 67.7394 11.7592L64.3236 13.8455C63.9441 14.0773 63.4735 13.7354 63.5766 13.3028L64.5053 9.40952C64.5488 9.22715 64.4867 9.03576 64.3443 8.91378L61.3045 6.30993C60.9668 6.02059 61.1465 5.46734 61.5898 5.4318L65.5796 5.11194C65.7664 5.09696 65.9293 4.97868 66.0013 4.80556L67.5383 1.10997Z" fill="#141718"/>
<path d="M88 1.30198L89.5371 4.99757C89.6811 5.34381 90.0067 5.58038 90.3805 5.61034L94.3702 5.9302L91.3305 8.53405C91.0457 8.77801 90.9213 9.16078 91.0083 9.52554L91.937 13.4188L88.5213 11.3325C88.2012 11.137 87.7988 11.137 87.4787 11.3325L84.063 13.4188L84.9917 9.52554C85.0787 9.16078 84.9543 8.778 84.6695 8.53405L81.6298 5.9302L85.6195 5.61034C85.9933 5.58038 86.3189 5.34381 86.4629 4.99757L88 1.30198Z" stroke="#6C7275"/>
</svg>
