<svg width="21" height="16" viewBox="0 0 21 16" fill="none" xmlns="http://www.w3.org/2000/svg">
<path fill-rule="evenodd" clip-rule="evenodd" d="M2.07666 2.53075C2.2329 2.01858 2.70916 1.646 3.27245 1.646H17.2724C17.8357 1.646 18.312 2.01858 18.4682 2.53075L10.2724 7.99461L2.07666 2.53075ZM0.522483 2.88226C0.522344 2.89026 0.522333 2.89826 0.522449 2.90625V12.896C0.522449 14.4148 1.75367 15.646 3.27245 15.646H17.2724C18.7912 15.646 20.0224 14.4148 20.0224 12.896V2.90622M18.5224 4.29738V12.896C18.5224 13.5864 17.9628 14.146 17.2724 14.146H3.27245C2.58209 14.146 2.02245 13.5864 2.02245 12.896V4.29738L9.85642 9.52003C10.1083 9.68798 10.4366 9.68798 10.6885 9.52003L18.5224 4.29738ZM20.0224 2.88229C20.015 1.36981 18.7867 0.145996 17.2724 0.145996H3.27245C1.75825 0.145996 0.52988 1.3698 0.522483 2.88226" fill="#141718"/>
</svg>
